<svg xmlns="http://www.w3.org/2000/svg" viewBox="0 0 480 480" role="img" aria-label="Helix">
  <rect width="480" height="480" rx="82" fill="#0D1117"/>
  <g transform="translate(84,64) scale(0.8)">
    <g transform="translate(0,440) scale(0.1,-0.1)" fill="#FFD600" stroke="none">
      <path d="M1415 4139 l-430 -260 -485 -292 -485 -291 -7 -11 -8 -10 3 -1055 2 -1055 45 -28 45 -28 395 -236 395 -235 526 -314 527 -313 9 -3 10 -3 229 135 229 134 455 271 455 271 281 168 282 167 5 27 5 26 0 1042 1 1043 -13 11 -14 10 -283 171 -284 171 -535 321 -535 320 -87 54 -88 53 -107 -1 -108 -1 -430 -259z m984 -254 l401 -240 0 -657 0 -658 -847 2 -848 3 0 648 0 649 5 8 5 8 419 251 418 250 23 -12 22 -12 402 -240z m1039 -625 l191 -115 1 -917 0 -917 -276 -165 -275 -166 -10 0 -9 0 0 1243 0 1244 6 6 6 5 87 -51 88 -52 191 -115z m-2598 -1030 l0 -1240 -9 0 -9 0 -273 163 -274 164 -3 909 -2 909 277 167 278 167 8 1 7 0 0 -1240z m1960 -793 l0 -624 -417 -248 -416 -248 -12 0 -11 0 -400 238 -399 238 -20 12 -20 12 -2 574 -2 574 5 48 6 47 844 0 844 0 0 -623z "/>
    </g>
  </g>
</svg>
